<svg width="1223" height="425" viewBox="0 0 1223 425" fill="none" xmlns="http://www.w3.org/2000/svg">
<path d="M109.243 124.727H285.169C337.212 124.727 379.419 166.934 379.419 218.969C379.419 271.004 337.219 313.211 285.177 313.211H109.243C57.2005 313.211 15.001 271.004 15.001 218.969C15.001 166.926 57.2083 124.727 109.251 124.727H109.243Z" fill="#002930"/>
<path d="M212.143 0C329.307 0 424.279 94.9802 424.279 212.136C424.279 329.299 329.299 424.279 212.143 424.279C94.9802 424.279 0 329.299 0 212.136C0 94.9724 94.9802 0 212.143 0ZM107.806 133.812C60.6774 133.812 22.4813 172.016 22.4813 219.145C22.4813 266.274 60.6853 304.478 107.806 304.478H285.16C332.289 304.478 370.486 266.274 370.486 219.145C370.486 172.016 332.282 133.812 285.16 133.812H107.806ZM82.4679 190.84C85.5685 186.601 91.911 185.039 96.6286 187.37L150.956 214.192C154.174 215.778 155.799 218.769 155.524 221.853C155.815 224.946 154.19 227.953 150.964 229.546L96.6365 256.368C91.9189 258.692 85.5842 257.145 82.4758 252.906C79.3752 248.668 80.6704 243.338 85.388 241.014L124.157 221.877L85.3801 202.74C80.6704 200.416 79.3673 195.094 82.4758 190.855L82.4679 190.84ZM304.69 212.348C309.942 212.348 314.204 216.61 314.212 221.869C314.212 227.12 309.95 231.391 304.69 231.391H242.749C237.498 231.391 233.235 227.128 233.235 221.869C233.235 216.618 237.498 212.348 242.749 212.348H304.69Z" fill="#00E0EF"/>
<path d="M577.431 103.391C584.605 103.391 590.077 101.766 593.837 98.5241C597.769 95.1095 599.731 89.9758 599.731 83.1467C599.731 76.6551 597.683 71.702 593.585 68.2795C589.653 64.6923 583.844 62.8947 576.159 62.8947C573.42 62.8947 571.112 62.9811 569.236 63.1538C567.532 63.1538 565.735 63.3264 563.851 63.664V103.391H577.439H577.431ZM564.102 185.67C562.218 186.188 559.235 186.699 555.13 187.209C551.197 187.719 547.265 187.978 543.34 187.978C539.415 187.978 535.906 187.641 532.829 186.958C529.925 186.44 527.445 185.419 525.396 183.881C523.347 182.342 521.808 180.207 520.78 177.468C519.752 174.736 519.242 171.141 519.242 166.706V45.9788C519.242 42.3916 520.184 39.652 522.06 37.776C524.108 35.7272 526.84 34.1024 530.263 32.9092C536.071 30.8605 542.649 29.4083 550.004 28.5448C557.516 27.5244 565.044 27.0063 572.556 27.0063C596.136 27.0063 614.175 32.0458 626.648 42.1246C639.121 52.2114 645.361 65.8776 645.361 83.1388C645.361 91.5144 643.988 99.1206 641.256 105.95C638.697 112.614 634.756 118.423 629.466 123.376C624.34 128.164 617.762 131.924 609.732 134.656C601.875 137.215 592.73 138.502 582.305 138.502H564.11V185.663L564.102 185.67ZM712.782 153.377C714.665 153.715 716.973 154.06 719.705 154.405C722.437 154.578 725.003 154.657 727.39 154.657C733.198 154.657 738.505 153.801 743.293 152.098C748.246 150.386 752.43 147.741 755.852 144.146C759.44 140.559 762.179 135.951 764.055 130.307C766.104 124.498 767.132 117.575 767.132 109.545C767.132 94.1675 763.545 82.6286 756.363 74.936C749.188 67.0786 739.619 63.1459 727.657 63.1459C725.262 63.1459 722.79 63.2323 720.223 63.405C717.829 63.5777 715.348 63.8288 712.789 64.1742V153.377H712.782ZM727.138 190.804C724.234 190.804 720.906 190.718 717.146 190.545C713.378 190.372 709.453 190.035 705.356 189.525C701.423 189.014 697.404 188.331 693.307 187.476C689.374 186.793 685.7 185.772 682.278 184.399C672.882 180.811 668.18 174.571 668.18 165.685V45.9788C668.18 42.3916 669.122 39.652 670.998 37.776C673.047 35.7272 675.786 34.1024 679.209 32.9092C686.548 30.5151 694.327 28.9766 702.538 28.2936C710.741 27.438 718.088 27.0142 724.572 27.0142C737.908 27.0142 749.949 28.639 760.719 31.8809C771.654 35.1228 780.971 40.1701 788.656 46.9993C796.521 53.6636 802.581 62.1255 806.859 72.3771C811.129 82.6286 813.272 94.7641 813.272 108.776C813.272 122.442 811.216 134.405 807.118 144.664C803.013 154.743 797.118 163.291 789.433 170.293C781.913 177.13 772.855 182.256 762.265 185.67C751.668 189.085 739.965 190.804 727.146 190.804H727.138ZM897.082 103.399C904.265 103.399 909.728 101.774 913.488 98.5319C917.413 95.1174 919.375 89.9837 919.375 83.1545C919.375 76.6629 917.327 71.7098 913.229 68.2874C909.296 64.7001 903.488 62.9026 895.803 62.9026C893.071 62.9026 890.756 62.9889 888.88 63.1616C887.168 63.1616 885.371 63.3343 883.495 63.6718V103.399H897.082ZM883.754 185.678C881.87 186.196 878.879 186.707 874.774 187.217C870.849 187.727 866.916 187.986 862.984 187.986C859.051 187.986 855.558 187.648 852.473 186.966C849.569 186.447 847.088 185.427 845.039 183.889C842.991 182.35 841.452 180.215 840.432 177.475C839.403 174.744 838.893 171.149 838.893 166.714V45.9867C838.893 42.3994 839.835 39.6599 841.711 37.7838C843.76 35.7351 846.492 34.1102 849.914 32.9171C855.723 30.8683 862.301 29.4162 869.656 28.5527C877.168 27.5322 884.696 27.0142 892.208 27.0142C915.796 27.0142 933.826 32.0536 946.299 42.1325C958.772 52.2192 965.013 65.8854 965.013 83.1467C965.013 91.5222 963.639 99.1285 960.908 105.958C958.341 112.622 954.408 118.431 949.11 123.384C943.992 128.172 937.406 131.932 929.376 134.664C921.51 137.223 912.373 138.51 901.949 138.51H883.754V185.67V185.678Z" fill="#002930"/>
<path d="M540.327 240.69C542.211 240.344 545.194 239.921 549.299 239.41C553.404 238.727 557.329 238.382 561.089 238.382C565.014 238.382 568.436 238.727 571.341 239.41C574.41 239.921 576.977 240.949 579.025 242.487C581.082 244.026 582.613 246.161 583.641 248.893C584.669 251.624 585.18 255.219 585.18 259.662V354.501C585.18 369.706 580.823 381.158 572.11 388.851C563.397 396.371 550.579 400.131 533.663 400.131C524.777 400.131 517.602 398.765 512.131 396.033C508.206 394.157 505.302 391.591 503.418 388.341C501.707 385.091 500.859 381.417 500.859 377.32C500.859 373.905 501.283 370.915 502.139 368.348C503.167 365.781 504.36 363.732 505.726 362.194C508.968 362.877 511.707 363.387 513.929 363.732C516.323 363.905 518.882 363.991 521.621 363.991C528.286 363.991 533.074 362.367 535.978 359.125C538.883 355.71 540.335 350.749 540.335 344.257V240.698L540.327 240.69ZM614.435 273.242C616.146 272.732 618.792 272.214 622.387 271.704C626.147 271.193 629.993 270.934 633.918 270.934C637.686 270.934 641.014 271.193 643.918 271.704C646.987 272.214 649.554 273.242 651.603 274.781C653.66 276.319 655.19 278.462 656.219 281.194C657.412 283.761 658.016 287.175 658.016 291.445V346.557C658.016 353.567 659.719 358.607 663.142 361.676C666.564 364.58 671.517 366.032 678.009 366.032C681.942 366.032 685.097 365.687 687.491 365.012C690.058 364.329 692.021 363.646 693.386 362.963V273.25C695.09 272.74 697.743 272.222 701.338 271.711C705.098 271.201 708.944 270.942 712.869 270.942C716.629 270.942 719.957 271.201 722.862 271.711C725.947 272.222 728.506 273.25 730.562 274.788C732.611 276.327 734.149 278.47 735.17 281.202C736.371 283.768 736.967 287.183 736.967 291.453V369.376C736.967 377.924 733.38 384.33 726.206 388.6C720.224 392.36 713.05 395.178 704.674 397.062C696.471 399.11 687.499 400.139 677.758 400.139C668.527 400.139 659.986 399.118 652.129 397.062C644.436 395.013 637.772 391.85 632.136 387.579C626.5 383.309 622.136 377.838 619.066 371.174C615.989 364.345 614.451 356.134 614.451 346.565V273.258L614.435 273.242ZM842.576 317.074C842.576 311.776 841.038 307.929 837.961 305.543C835.056 302.976 831.037 301.697 825.911 301.697C822.497 301.697 819.074 302.121 815.66 302.976C812.418 303.832 809.6 305.111 807.198 306.823V395.767C805.494 396.277 802.763 396.795 798.995 397.305C795.416 397.815 791.648 398.074 787.715 398.074C783.955 398.074 780.541 397.815 777.464 397.305C774.559 396.795 772.087 395.767 770.03 394.228C767.981 392.69 766.348 390.641 765.163 388.074C764.135 385.342 763.625 381.841 763.625 377.563V300.669C763.625 296.053 764.567 292.293 766.443 289.389C768.491 286.484 771.223 283.839 774.646 281.445C780.454 277.347 787.715 274.011 796.436 271.452C805.322 268.886 815.142 267.606 825.911 267.606C845.221 267.606 860.089 271.876 870.505 280.424C880.937 288.8 886.149 300.504 886.149 315.544V395.774C884.446 396.285 881.698 396.803 877.946 397.313C874.351 397.823 870.599 398.082 866.666 398.082C862.906 398.082 859.484 397.823 856.415 397.313C853.51 396.803 851.03 395.774 848.989 394.236C846.94 392.697 845.308 390.649 844.122 388.082C843.094 385.35 842.584 381.849 842.584 377.571V317.074H842.576ZM912.037 236.843C912.037 230.352 914.172 224.881 918.45 220.438C922.893 215.995 928.702 213.773 935.876 213.773C943.051 213.773 948.781 215.995 953.051 220.438C957.502 224.881 959.716 230.352 959.716 236.843C959.716 243.335 957.502 248.806 953.051 253.249C948.781 257.692 943.051 259.913 935.876 259.913C928.702 259.913 922.893 257.692 918.45 253.249C914.18 248.798 912.037 243.335 912.037 236.843ZM957.667 395.767C955.783 396.104 952.973 396.536 949.205 397.046C945.618 397.729 941.944 398.074 938.184 398.074C934.424 398.074 931.01 397.815 927.933 397.305C925.028 396.795 922.548 395.767 920.499 394.228C918.45 392.69 916.818 390.641 915.632 388.074C914.604 385.342 914.094 381.841 914.094 377.563V273.234C915.97 272.889 918.709 272.465 922.297 271.955C926.057 271.272 929.817 270.926 933.577 270.926C937.336 270.926 940.665 271.185 943.569 271.696C946.646 272.206 949.213 273.234 951.262 274.773C953.31 276.311 954.849 278.454 955.869 281.186C957.07 283.753 957.667 287.167 957.667 291.437V395.767ZM1114.34 333.739C1114.34 344.336 1112.71 353.818 1109.47 362.186C1106.23 370.389 1101.61 377.312 1095.63 382.948C1089.82 388.584 1082.81 392.862 1074.61 395.767C1066.41 398.671 1057.27 400.123 1047.18 400.123C1037.1 400.123 1027.96 398.585 1019.76 395.515C1011.55 392.438 1004.46 388.082 998.477 382.446C992.668 376.637 988.139 369.627 984.889 361.425C981.647 353.222 980.015 343.998 980.015 333.747C980.015 323.66 981.64 314.523 984.889 306.32C988.139 298.117 992.668 291.194 998.477 285.558C1004.46 279.749 1011.55 275.307 1019.76 272.229C1027.96 269.152 1037.1 267.614 1047.18 267.614C1057.27 267.614 1066.41 269.239 1074.61 272.481C1082.81 275.558 1089.82 280.001 1095.63 285.809C1101.61 291.445 1106.23 298.369 1109.47 306.572C1112.71 314.774 1114.34 323.825 1114.34 333.739ZM1024.62 333.739C1024.62 344.163 1026.59 352.193 1030.51 357.829C1034.62 363.293 1040.25 366.032 1047.44 366.032C1054.61 366.032 1060.08 363.214 1063.83 357.57C1067.77 351.934 1069.73 343.983 1069.73 333.731C1069.73 323.472 1067.77 315.614 1063.83 310.151C1059.91 304.507 1054.34 301.689 1047.18 301.689C1040 301.689 1034.44 304.507 1030.51 310.151C1026.59 315.614 1024.62 323.48 1024.62 333.731V333.739ZM1179.17 395.767C1177.46 396.277 1174.73 396.795 1170.97 397.305C1167.38 397.815 1163.62 398.074 1159.69 398.074C1155.93 398.074 1152.52 397.815 1149.44 397.305C1146.54 396.795 1144.06 395.767 1142 394.228C1139.95 392.69 1138.33 390.641 1137.13 388.074C1136.1 385.342 1135.59 381.841 1135.59 377.563V300.669C1135.59 296.736 1136.28 293.408 1137.64 290.668C1139.18 287.764 1141.32 285.197 1144.06 282.976C1146.79 280.754 1150.12 278.792 1154.05 277.081C1158.15 275.204 1162.51 273.58 1167.13 272.214C1171.73 270.848 1176.52 269.82 1181.47 269.137C1186.43 268.281 1191.39 267.857 1196.34 267.857C1204.54 267.857 1211.04 269.482 1215.82 272.724C1220.61 275.801 1223 280.927 1223 288.101C1223 290.495 1222.65 292.882 1221.97 295.276C1221.29 297.497 1220.43 299.546 1219.41 301.422C1215.82 301.422 1212.15 301.595 1208.39 301.94C1204.63 302.278 1200.96 302.796 1197.37 303.479C1193.78 304.162 1190.37 304.931 1187.12 305.787C1184.05 306.469 1181.4 307.325 1179.17 308.346V395.751V395.767Z" fill="#00E0EF"/>
</svg>
